/* XPM */
static char * close_inactive_xpm[] = {
"30 30 65 1",
" 	c None",
".	c #1D953F",
"+	c #648D3E",
"@	c #8E813E",
"#	c #A6773D",
"$	c #AF733C",
"%	c #90803D",
"&	c #678C3E",
"*	c #4D913F",
"=	c #9D7B3D",
"-	c #B2713C",
";	c #9F7B3D",
">	c #51903E",
",	c #5F8E3E",
"'	c #AC743C",
")	c #AD733C",
"!	c #638D3E",
"~	c #4B913F",
"{	c #50903F",
"]	c #9B7C3D",
"^	c #B68D6D",
"/	c #B37545",
"(	c #9F7A3C",
"_	c #618D3E",
":	c #B68E6D",
"<	c #BCD3BF",
"[	c #BBBCA7",
"}	c #BBBCA6",
"|	c #BCD2BF",
"1	c #658C3E",
"2	c #8C823D",
"3	c #B37544",
"4	c #BBBFA9",
"5	c #B37646",
"6	c #BABCA5",
"7	c #BBBEA8",
"8	c #B37546",
"9	c #8F813D",
"0	c #A4793C",
"a	c #BBC0AB",
"b	c #BBBDA8",
"c	c #AC743D",
"d	c #BBC0AA",
"e	c #AB753C",
"f	c #BBBDA7",
"g	c #AE733C",
"h	c #A2793D",
"i	c #BBBFAA",
"j	c #A5783D",
"k	c #8A833D",
"l	c #8D813D",
"m	c #5C8E3F",
"n	c #618D3F",
"o	c #997D3D",
"p	c #44923F",
"q	c #A9753C",
"r	c #588F3E",
"s	c #AA753C",
"t	c #5D8E3E",
"u	c #987D3D",
"v	c #9A7D3D",
"w	c #48913F",
"x	c #5B8E3E",
"y	c #8B823D",
"z	c #5E8E3E",
"..............................",
"..............................",
"..............................",
"..............................",
"..............................",
"..............................",
"...........+@#$$#%&...........",
".........*=--------;>.........",
"........,'----------)!........",
".......~'------------){.......",
".......]---^/----/^---(.......",
"......_---:<[/--/}|:---1......",
"......2---3}<4536|78---9......",
"......0----3}<ab|78----#......",
"......c-----3b<<d8-----$......",
"......e-----3f<<a5-----g......",
"......h----36|ib<45----j......",
"......k---36|783}<45---l......",
"......m---:|}/--/[<:---n......",
".......o---^/----/^---=.......",
".......pq------------'*.......",
"........rs----------ct........",
".........pu--------vw.........",
"...........xkhsehyz...........",
"..............................",
"..............................",
"..............................",
"..............................",
"..............................",
".............................."};
