/* XPM */
static char * close_pressed_xpm[] = {
"30 30 28 1",
" 	c None",
".	c #1D953F",
"+	c #86843D",
"@	c #AE733C",
"#	c #C3663B",
"$	c #CD5F3B",
"%	c #CE5D3A",
"&	c #CE5D3B",
"*	c #CF5D3B",
"=	c #A2793D",
"-	c #CF5D3A",
";	c #D48A7A",
">	c #CF6447",
",	c #D48B7A",
"'	c #DBE6DC",
")	c #D9C9BF",
"!	c #D9C9BE",
"~	c #DBE5DB",
"{	c #CF6446",
"]	c #D9CDC2",
"^	c #CF6548",
"/	c #D8C9BE",
"(	c #D9CCC1",
"_	c #D9CFC4",
":	c #D9CBC1",
"<	c #D9CEC3",
"[	c #D9CBC0",
"}	c #D9CDC3",
"..............................",
"..............................",
"..............................",
"..............................",
"..............................",
"...........+@#$$#@+...........",
".........+#%&****%*#+.........",
"........=*&*********-=........",
".......=-************&=.......",
"......+&***************+......",
"......#****;>****>;***-#......",
".....+****,')>**>!~,****+.....",
".....@-***{!']^{/~(^***&@.....",
".....#-****{!'_:~(^*****#.....",
".....$******{:''<^******$.....",
".....$******{[''_^******$.....",
".....#*****{/~}:']^*****#.....",
".....@****{/~(^{!']^****@.....",
".....+****,~!>**>)',***&+.....",
"......#****;>****>;****#......",
"......+*&**************+......",
".......=%*************=.......",
"........=%**********%=........",
".........+#-*****--#+.........",
"...........+@#$$#@+...........",
"..............................",
"..............................",
"..............................",
"..............................",
".............................."};
