/* XPM */
static char * maximize_prelight_xpm[] = {
"30 30 14 1",
" 	c None",
".	c #1D953F",
"+	c #F9FBF9",
"@	c #FFFFFF",
"#	c #5DA46A",
"$	c #AECAB2",
"%	c #55A163",
"&	c #AFCBB3",
"*	c #499D5A",
"=	c #B0CBB4",
"-	c #3D9A51",
";	c #B2CDB6",
">	c #FCFDFC",
",	c #2B9746",
"..............................",
"..............................",
"..............................",
"..............................",
"..............................",
"..............................",
"..............................",
"..............................",
"..............................",
"..............................",
"...............+@@@@#.........",
"...............$@@@@%.........",
"................&@@@*.........",
".................=@@-.........",
"..................;>,.........",
".........,>;..................",
".........-@@=.................",
".........*@@@&................",
".........%@@@@$...............",
".........#@@@@+...............",
"..............................",
"..............................",
"..............................",
"..............................",
"..............................",
"..............................",
"..............................",
"..............................",
"..............................",
".............................."};
