/* XPM */
static char * close_inactive_xpm[] = {
"30 30 59 1",
" 	c None",
".	c #008299",
"+	c #607B91",
"@	c #8C7185",
"#	c #A5697C",
"$	c #AE6577",
"%	c #8E7084",
"&	c #637A90",
"*	c #467E95",
"=	c #9B6C7F",
"-	c #B16476",
";	c #9D6C7F",
">	c #4B7E94",
",	c #5B7C92",
"'	c #AB6679",
")	c #AC6678",
"!	c #5E7B91",
"~	c #447F95",
"{	c #996D80",
"]	c #B58492",
"^	c #B1687A",
"/	c #9E6B7E",
"(	c #5D7C91",
"_	c #BBCDD4",
":	c #BAB5BF",
"<	c #BAB5BE",
"[	c #BBCCD3",
"}	c #617B90",
"|	c #8A7286",
"1	c #BAB8C1",
"2	c #B1697A",
"3	c #B9B5BE",
"4	c #BAB7C0",
"5	c #8D7185",
"6	c #A26A7D",
"7	c #BABAC2",
"8	c #A4697C",
"9	c #AA6779",
"0	c #BAB9C2",
"a	c #BAB7BF",
"b	c #AD6578",
"c	c #A16A7D",
"d	c #887287",
"e	c #8B7186",
"f	c #587C92",
"g	c #5D7B91",
"h	c #976E81",
"i	c #9C6C80",
"j	c #3D7F96",
"k	c #A8677A",
"l	c #527D93",
"m	c #A9677A",
"n	c #966E82",
"o	c #986D81",
"p	c #427F95",
"q	c #567C92",
"r	c #A06B7E",
"s	c #897286",
"t	c #597C92",
"..............................",
"..............................",
"..............................",
"..............................",
"..............................",
"..............................",
"...........+@#$$#%&...........",
".........*=--------;>.........",
"........,'----------)!........",
".......~'------------)>.......",
".......{---]^----^]---/.......",
"......(---]_:^--^<[]---}......",
"......|---^<_12^3[42---5......",
"......6----^<_74[42----8......",
"......9-----^4__02-----$......",
"......9-----^a__72-----b......",
"......c----^3[04_12----8......",
"......d---^3[42^<_12---e......",
"......f---][<^--^:_]---g......",
".......h---]^----^]---i.......",
".......jk------------'*.......",
"........lm----------9f........",
".........jn--------op.........",
"...........qdrm9cst...........",
"..............................",
"..............................",
"..............................",
"..............................",
"..............................",
".............................."};
