/* XPM */
static char * maximize_inactive_xpm[] = {
"30 30 13 1",
" 	c None",
".	c #008299",
"+	c #B6CAD1",
"@	c #BBCDD4",
"#	c #3D8BA0",
"$	c #7EA7B5",
"%	c #388A9F",
"&	c #2E889D",
"*	c #0D839A",
"=	c #B9CCD3",
"-	c #81A8B6",
";	c #7FA7B5",
">	c #22859B",
"..............................",
"..............................",
"..............................",
"..............................",
"..............................",
"..............................",
"..............................",
"..............................",
"..............................",
"..............................",
"..............................",
"..............+@@@@#..........",
"..............$@@@@%..........",
"...............$@@@&..........",
"..........*=-...;@@>..........",
"..........>@@;...-=*..........",
"..........&@@@$...............",
"..........%@@@@$..............",
"..........#@@@@+..............",
"..............................",
"..............................",
"..............................",
"..............................",
"..............................",
"..............................",
"..............................",
"..............................",
"..............................",
"..............................",
".............................."};
