/* XPM */
static char * close_pressed_xpm[] = {
"30 30 30 1",
" 	c None",
".	c #570000",
"+	c #95161B",
"@	c #B61F26",
"#	c #C8252C",
"$	c #D0272F",
"%	c #D1272E",
"&	c #D1272F",
"*	c #D2272F",
"=	c #AB1C22",
"-	c #D2272E",
";	c #D77176",
">	c #D3373E",
",	c #C8242B",
"'	c #D77276",
")	c #DEDADA",
"!	c #DCBBBD",
"~	c #DCBABC",
"{	c #DED9D9",
"]	c #D3363D",
"^	c #DCBFBF",
"/	c #D33940",
"(	c #DBBABB",
"_	c #DCBEBF",
":	c #D33840",
"<	c #DCC1C2",
"[	c #DCBDBF",
"}	c #DCC0C1",
"|	c #DCBDBE",
"1	c #DCBFC1",
"..............................",
"..............................",
"..............................",
"..............................",
"..............................",
"...........+@#$$#@+...........",
".........+#%&****%*#+.........",
"........=*&*********-=........",
".......=-************&=.......",
"......+&***************+......",
"......#****;>****>;***-,......",
".....+****')!>**>~{'****+.....",
".....@-***]~)^/]({_:***&@.....",
".....#-****]~)<[{_:*****#.....",
".....$******][))}:******$.....",
".....$******]|))</******$.....",
".....#*****]({1[)^/*****#.....",
".....@****]({_:]~)^/****@.....",
".....+****'{~>**>!)'***&+.....",
"......#****;>****>;****#......",
"......+*&**************+......",
".......=%*************=.......",
"........=%**********%=........",
".........+#-*****--#+.........",
"...........+@#$$#@+...........",
"..............................",
"..............................",
"..............................",
"..............................",
".............................."};
