/* XPM */
static char * close_prelight_xpm[] = {
"30 30 34 1",
" 	c None",
".	c #570000",
"+	c #A71B21",
"@	c #CF272E",
"#	c #E52D35",
"$	c #EF2F38",
"%	c #F03038",
"&	c #F03039",
"*	c #F13039",
"=	c #C3232A",
"-	c #F13038",
";	c #F12F38",
">	c #F02F39",
",	c #F7858B",
"'	c #F2424A",
")	c #E52C34",
"!	c #F7868B",
"~	c #FFFFFF",
"{	c #FDDBDD",
"]	c #FDDADC",
"^	c #FFFEFE",
"/	c #F12F39",
"(	c #F24149",
"_	c #FDDFE0",
":	c #F2444C",
"<	c #FCDADB",
"[	c #FDDEDF",
"}	c #F2434C",
"|	c #FDE2E3",
"1	c #FDDDDF",
"2	c #FDE1E2",
"3	c #FDDDDE",
"4	c #FDE0E2",
"5	c #F02F38",
"..............................",
"..............................",
"..............................",
"..............................",
"..............................",
"...........+@#$$#@+...........",
".........+#%&****%*#+.........",
"........=*&*********-=........",
".......=;************>=.......",
"......+&***************+......",
"......#****,'****',***;)......",
".....+****!~{'**']^!***/+.....",
".....@-***(]~_:(<^[}***&@.....",
".....#-****(]~|1^[}*****#.....",
".....$******(1~~2}******$.....",
".....$******(3~~|:******$.....",
".....#*****(<^41~_:****/#.....",
".....@****(<^[}(]~_:***/@.....",
".....+****!^]'**'{~!***>+.....",
"......#****,'****',****#......",
"......+*&**************+......",
".......=%/************=.......",
"........=5*********/%=........",
".........+#;**/**;-#+.........",
"...........+@#$$#@+...........",
"..............................",
"..............................",
"..............................",
"..............................",
".............................."};
