/* XPM */
static char * close_inactive_xpm[] = {
"30 30 65 1",
" 	c None",
".	c #570000",
"+	c #7B0D10",
"@	c #9B181E",
"#	c #AF1E24",
"$	c #B62026",
"%	c #9D181D",
"&	c #7D0E11",
"*	c #6C070A",
"=	c #A71B21",
"-	c #B92027",
";	c #A91C22",
">	c #6F080A",
",	c #780B0E",
"'	c #B41F25",
")	c #B51F26",
"!	c #7A0C11",
"~	c #6B0709",
"{	c #6F090B",
"]	c #A61B21",
"^	c #BD6064",
"/	c #BA2E34",
"(	c #AA1B21",
"_	c #790C10",
":	c #BD6164",
"<	c #C3BBBB",
"[	c #C2A0A2",
"}	c #C2A0A1",
"|	c #C3BABA",
"1	c #7C0D11",
"2	c #9A171C",
"3	c #BA2D33",
"4	c #C2A3A4",
"5	c #BA2F35",
"6	c #C1A0A0",
"7	c #C2A3A3",
"8	c #9C181D",
"9	c #AD1D22",
"0	c #C2A5A6",
"a	c #C2A2A3",
"b	c #AF1D24",
"c	c #B41F26",
"d	c #C2A5A5",
"e	c #B31F25",
"f	c #B61F26",
"g	c #AC1C23",
"h	c #C2A4A5",
"i	c #AE1C23",
"j	c #98161C",
"k	c #9B171D",
"l	c #760B0F",
"m	c #790C11",
"n	c #A41A20",
"o	c #A81B21",
"p	c #670507",
"q	c #B11E25",
"r	c #730A0C",
"s	c #B31E25",
"t	c #A41B20",
"u	c #A51A20",
"v	c #6A0608",
"w	c #750A0D",
"x	c #AB1D22",
"y	c #99161B",
"z	c #770B0E",
"..............................",
"..............................",
"..............................",
"..............................",
"..............................",
"..............................",
"...........+@#$$#%&...........",
".........*=--------;>.........",
"........,'----------)!........",
".......~'------------){.......",
".......]---^/----/^---(.......",
"......_---:<[/--/}|:---1......",
"......2---3}<4536|75---8......",
"......9----3}<0a|75----b......",
"......c-----3a<<d5-----$......",
"......e-----3a<<05-----f......",
"......g----36|ha<45----i......",
"......j---36|753}<45---k......",
"......l---:|}/--/[<:---m......",
".......n---^/----/^---o.......",
".......pq------------'*.......",
"........rs----------cl........",
".........pt--------uv.........",
"...........wjxsegyz...........",
"..............................",
"..............................",
"..............................",
"..............................",
"..............................",
".............................."};
