/* XPM */
static char * close_active_xpm[] = {
"30 30 71 1",
" 	c None",
".	c #570000",
"+	c #95161A",
"@	c #C6242D",
"#	c #E32C35",
"$	c #ED2F38",
"%	c #C8252B",
"&	c #99181C",
"*	c #7D0E11",
"=	c #D72931",
"-	c #F13039",
";	c #DA2A32",
">	c #821013",
",	c #911318",
"'	c #EA2E37",
")	c #EB2E37",
"!	c #94141B",
"~	c #7C0E11",
"{	c #811013",
"]	c #D62830",
"^	c #F7858B",
"/	c #F2424A",
"(	c #DB2931",
"_	c #590000",
":	c #93151A",
"<	c #F7868B",
"[	c #FFFFFF",
"}	c #FDDBDD",
"|	c #FDDADC",
"1	c #FFFEFE",
"2	c #98161C",
"3	c #C4242A",
"4	c #F24149",
"5	c #FDDFE0",
"6	c #F2444C",
"7	c #FCDADB",
"8	c #FDDEDF",
"9	c #F2434C",
"0	c #C7252C",
"a	c #E02B32",
"b	c #FDE2E3",
"c	c #FDDDDF",
"d	c #E22C35",
"e	c #E92E38",
"f	c #FDE1E2",
"g	c #E92E36",
"h	c #FDDDDE",
"i	c #EC2F38",
"j	c #DE2B33",
"k	c #FDE0E2",
"l	c #E12B34",
"m	c #C1232A",
"n	c #C5232B",
"o	c #8D1419",
"p	c #93151B",
"q	c #D3282F",
"r	c #D82931",
"s	c #750A0E",
"t	c #E62D36",
"u	c #891315",
"v	c #E82D36",
"w	c #8E1419",
"x	c #750A0D",
"y	c #D2282F",
"z	c #D42730",
"A	c #790C0F",
"B	c #8D1217",
"C	c #DD2C33",
"D	c #E82E36",
"E	c #C22229",
"F	c #901418",
"..............................",
"..............................",
"..............................",
"..............................",
"..............................",
"..............................",
"...........+@#$$#%&...........",
".........*=--------;>.........",
"........,'----------)!........",
".......~'------------){.......",
".......]---^/----/^---(_......",
"......:---<[}/--/|1<---2......",
"......3---4|[5647189---0......",
"......a----4|[bc189----d......",
"......e-----4c[[f9-----$......",
"......g-----4h[[b6-----i......",
"......j----471kc[56----l......",
"......m---471894|[56---n......",
"......o---<1|/--/}[<---p......",
".......q---^/----/^---r.......",
".......st------------'*.......",
"........uv----------ew........",
".........xy--------zA.........",
"...........BmCvDjEF...........",
"..............................",
"..............................",
"..............................",
"..............................",
"..............................",
".............................."};
