/* XPM */
static char * maximize_prelight_xpm[] = {
"30 30 13 1",
" 	c None",
".	c #570000",
"+	c #F9F9F9",
"@	c #FFFFFF",
"#	c #775858",
"$	c #B7ADAD",
"%	c #714F4F",
"&	c #6A4242",
"*	c #B8AFAF",
"=	c #643535",
"-	c #BAB1B1",
";	c #FCFCFC",
">	c #5C1C1C",
"..............................",
"..............................",
"..............................",
"..............................",
"..............................",
"..............................",
"..............................",
"..............................",
"..............................",
"..............................",
"...............+@@@@#.........",
"...............$@@@@%.........",
"................$@@@&.........",
".................*@@=.........",
"..................-;>.........",
".........>;-..................",
".........=@@*.................",
".........&@@@$................",
".........%@@@@$...............",
".........#@@@@+...............",
"..............................",
"..............................",
"..............................",
"..............................",
"..............................",
"..............................",
"..............................",
"..............................",
"..............................",
".............................."};
