/* XPM */
static char * close_active_xpm[] = {
"30 30 60 1",
" 	c None",
".	c #D24726",
"+	c #DB422C",
"@	c #E53A33",
"#	c #ED3437",
"$	c #F03138",
"%	c #E53A32",
"&	c #D74429",
"*	c #E93735",
"=	c #F13039",
"-	c #EA3635",
";	c #D84429",
">	c #DA422B",
",	c #EF3238",
"'	c #DA422C",
")	c #D64529",
"!	c #D7442A",
"~	c #F7858B",
"{	c #F2424A",
"]	c #EB3535",
"^	c #F7868B",
"/	c #FFFFFF",
"(	c #FDDBDD",
"_	c #FDDADC",
":	c #FFFEFE",
"<	c #DB412C",
"[	c #E53B31",
"}	c #F24149",
"|	c #FDDFE0",
"1	c #F2444C",
"2	c #FCDADB",
"3	c #FDDEDF",
"4	c #F2434C",
"5	c #E53B33",
"6	c #ED3535",
"7	c #FDE2E3",
"8	c #FDDDDF",
"9	c #ED3438",
"0	c #EF3239",
"a	c #FDE1E2",
"b	c #FDDDDE",
"c	c #EB3536",
"d	c #FDE0E2",
"e	c #EC3436",
"f	c #E43B32",
"g	c #D9432C",
"h	c #E83834",
"i	c #EB3735",
"j	c #ED3337",
"k	c #D8432A",
"l	c #EE3238",
"m	c #DA432B",
"n	c #D54528",
"o	c #E83934",
"p	c #E93734",
"q	c #D9432B",
"r	c #EB3636",
"s	c #EE3338",
"t	c #EC3536",
"u	c #E43B31",
"..............................",
"..............................",
"..............................",
"..............................",
"..............................",
"..............................",
"...........+@#$$#%+...........",
".........&*========-;.........",
"........>,==========,'........",
".......),============,!.......",
".......*===~{===={~===].......",
"......+===^/({=={_:^===<......",
"......[===}_/|1}2:34===5......",
"......6====}_/78:34====9......",
"......0=====}8//a4=====$......",
"......,=====}b//71=====$......",
"......c====}2:d8/|1====e......",
"......f===}2:34}_/|1===%......",
"......g===^:_{=={(/^==='......",
".......h===~{===={~===i.......",
".......)j============,&.......",
"........kl==========0m........",
".........no========p).........",
"...........qfrlstu>...........",
"..............................",
"..............................",
"..............................",
"..............................",
"..............................",
".............................."};
