/* XPM */
static char * close_inactive_xpm[] = {
"30 30 44 1",
" 	c None",
".	c #D24726",
"+	c #D64529",
"@	c #DC412D",
"#	c #E03E2F",
"$	c #E23D30",
"%	c #DC412C",
"&	c #D74429",
"*	c #D44628",
"=	c #DE3F2E",
"-	c #DF3F2E",
";	c #D54628",
">	c #D64528",
",	c #E13E30",
"'	c #E13D30",
")	c #D64429",
"!	c #DE402E",
"~	c #E56B68",
"{	c #E3453B",
"]	c #E56C68",
"^	c #EAC0BD",
"/	c #E9A7A4",
"(	c #E9A6A3",
"_	c #EAC0BC",
":	c #E3443A",
"<	c #E9A9A6",
"[	c #E3463C",
"}	c #E8A6A2",
"|	c #E9A9A5",
"1	c #E3453C",
"2	c #E03F2E",
"3	c #E9ACA8",
"4	c #E9A8A5",
"5	c #E03E30",
"6	c #E9ABA7",
"7	c #E9A8A4",
"8	c #DF3F2F",
"9	c #E9AAA7",
"0	c #DB422C",
"a	c #DF402E",
"b	c #D44627",
"c	c #D54528",
"d	c #DD402E",
"e	c #DB412C",
"..............................",
"..............................",
"..............................",
"..............................",
"..............................",
"..............................",
"...........+@#$$#%&...........",
".........*=$$$$$$$$-;.........",
"........>,$$$$$$$$$$')........",
".......*,$$$$$$$$$$$$';.......",
".......!$$$~{$$$${~$$$-.......",
"......+$$$]^/{$${(_]$$$&......",
"......%$$$:(^<[:}_|1$$$@......",
"......2$$$$:(^34_|1$$$$5......",
"......,$$$$$:4^^61$$$$$$......",
"......,$$$$$:7^^3[$$$$$'......",
"......8$$$$:}_94^<[$$$$#......",
"......0$$$:}_|1:(^<[$$$@......",
"......+$$$]_({$${/^]$$$+......",
".......!$$$~{$$$${~$$$a.......",
".......b5$$$$$$$$$$$$,*.......",
"........c'$$$$$$$$$$,+........",
".........bd$$$$$$$$!b.........",
"...........>08',8e>...........",
"..............................",
"..............................",
"..............................",
"..............................",
"..............................",
".............................."};
