/* XPM */
static char * close_pressed_xpm[] = {
"30 30 27 1",
" 	c None",
".	c #D24726",
"+	c #DB422C",
"@	c #E13D30",
"#	c #E63A33",
"$	c #E83834",
"%	c #E83833",
"&	c #DF3F2F",
"*	c #E83733",
"=	c #E83734",
"-	c #ED7778",
";	c #E94442",
">	c #E63A32",
",	c #F3DDDB",
"'	c #F1BEBE",
")	c #F1BDBD",
"!	c #F3DCDA",
"~	c #E94341",
"{	c #F1C2C0",
"]	c #E94543",
"^	c #F0BDBC",
"/	c #F1C1BF",
"(	c #E94443",
"_	c #F1C4C3",
":	c #F1C0BF",
"<	c #F1C3C2",
"[	c #F1C2C2",
"..............................",
"..............................",
"..............................",
"..............................",
"..............................",
"...........+@#$$#@+...........",
".........+#%$$$$$%$#+.........",
"........&$$$$$$$$$$$%&........",
".......&*$$$$$$$$$$$$=&.......",
"......+$$$$$$$$$$$$$$$$+......",
"......#$$$$-;$$$$;-$$$*>......",
".....+$$$$-,';$$;)!-$$$=+.....",
".....@%$$$~),{]~^!/($$$$@.....",
".....#%$$$$~),_:!/($$$$$#.....",
".....$$$$$$$~:,,<($$$$$$$.....",
".....$$$$$$$~:,,_]$$$$$$$.....",
".....#$$$$$~^![:,{]$$$$=#.....",
".....@$$$$~^!/(~),{]$$$=@.....",
".....+$$$$-!);$$;',-$$$=+.....",
"......#$$$$-;$$$$;-$$$$#......",
"......+$$$$$$$$$$$$$$$$+......",
".......&%=$$$$$$$$$$$$&.......",
"........&*$$$$$$$$$=%&........",
".........+#*$$=$$*%#+.........",
"...........+@#$$#@+...........",
"..............................",
"..............................",
"..............................",
"..............................",
".............................."};
