/* XPM */
static char * close_inactive_xpm[] = {
"30 30 63 1",
" 	c None",
".	c #3CB371",
"+	c #6EA96B",
"@	c #949A64",
"#	c #AA8E5E",
"$	c #B2895B",
"%	c #959964",
"&	c #70A86B",
"*	c #5BAE6E",
"=	c #A19361",
"-	c #B5875A",
";	c #A39260",
">	c #5EAD6E",
",	c #6AAA6C",
"'	c #AF8A5C",
")	c #B18A5C",
"!	c #6DA96C",
"~	c #59AE6E",
"{	c #A09461",
"]	c #B99E7F",
"^	c #B58A60",
"/	c #A49260",
"(	c #6CAA6C",
"_	c #B99F7F",
":	c #BFDDC9",
"<	c #BDC8B2",
"[	c #BDC8B1",
"}	c #BFDDC8",
"|	c #6FA86B",
"1	c #929B64",
"2	c #BDCAB4",
"3	c #B58A61",
"4	c #BDC8B0",
"5	c #BDCAB3",
"6	c #A7905F",
"7	c #BDCCB6",
"8	c #BDC9B3",
"9	c #A98E5E",
"0	c #AF8B5D",
"a	c #BDCCB5",
"b	c #AE8B5D",
"c	c #BDC9B2",
"d	c #B1895C",
"e	c #A6905F",
"f	c #BDCBB5",
"g	c #A98F5E",
"h	c #909C65",
"i	c #939B64",
"j	c #67AB6D",
"k	c #6BA96C",
"l	c #9E9562",
"m	c #A29361",
"n	c #54AF6F",
"o	c #AC8C5D",
"p	c #64AB6D",
"q	c #AE8C5D",
"r	c #68AB6D",
"s	c #9D9662",
"t	c #9E9561",
"u	c #58AE6E",
"v	c #66AB6D",
"w	c #A6915F",
"x	c #69AA6C",
"..............................",
"..............................",
"..............................",
"..............................",
"..............................",
"..............................",
"...........+@#$$#%&...........",
".........*=--------;>.........",
"........,'----------)!........",
".......~'------------)>.......",
".......{---]^----^]---/.......",
"......(---_:<^--^[}_---|......",
"......1---^[:23^4}53---@......",
"......6----^[:78}53----9......",
"......0-----^8::a3-----$......",
"......b-----^c::73-----d......",
"......e----^4}f8:23----g......",
"......h---^4}53^[:23---i......",
"......j---_}[^--^<:_---k......",
".......l---]^----^]---m.......",
".......no------------'*.......",
"........pq----------0r........",
".........ns--------tu.........",
"...........vhwqbehx...........",
"..............................",
"..............................",
"..............................",
"..............................",
"..............................",
".............................."};
