/* XPM */
static char * close_inactive_xpm[] = {
"30 30 41 1",
" 	c None",
".	c #DC143C",
"+	c #DF1A3B",
"@	c #E21F3B",
"#	c #E5233B",
"$	c #E6243B",
"%	c #DF1A3C",
"&	c #DE173C",
"*	c #E4213B",
"=	c #E7253B",
"-	c #E4223B",
";	c #DE183C",
">	c #DF193B",
",	c #DF193C",
"'	c #DD173C",
")	c #EA616C",
"!	c #E73143",
"~	c #E4213A",
"{	c #EA626C",
"]	c #EEBCBF",
"^	c #EDA1A6",
"/	c #EDA0A6",
"(	c #EEBBBE",
"_	c #E73043",
":	c #EDA4A8",
"<	c #E73245",
"[	c #EDA0A5",
"}	c #EDA3A8",
"|	c #E2203B",
"1	c #E5223A",
"2	c #EDA6AB",
"3	c #EDA2A8",
"4	c #EDA5AA",
"5	c #EDA2A7",
"6	c #E5223B",
"7	c #E21E3B",
"8	c #DE193C",
"9	c #E5213B",
"0	c #DD163C",
"a	c #E6233B",
"b	c #E4203B",
"..............................",
"..............................",
"..............................",
"..............................",
"..............................",
"..............................",
"...........+@#$$#@%...........",
".........&*========-;.........",
"........>$==========$,........",
".......'$============$;.......",
".......*===)!====!)===~.......",
"......,==={]^!==!/({===,......",
"......@===_/]:<_[(}<===|......",
"......1====_/]23(}<====#......",
"......$=====_3]]4<=====$......",
"......$=====_5]]2<=====$......",
"......6====_[(43]:<====6......",
"......7===_[(}<_/]:<===7......",
"......8==={(/!==!^]{===,......",
".......*===)!====!)===9.......",
".......0#============$&.......",
"........8a==========$,........",
".........0*========b'.........",
"...........;7#a$67,...........",
"..............................",
"..............................",
"..............................",
"..............................",
"..............................",
".............................."};
