/* XPM */
static char * close_pressed_xpm[] = {
"30 30 32 1",
" 	c None",
".	c #DC143C",
"+	c #E21E3B",
"@	c #E6243B",
"#	c #E9283A",
"$	c #EB293A",
"%	c #EA2A39",
"&	c #EA2A3A",
"*	c #EB2A3A",
"=	c #E5223B",
"-	c #EB2A39",
";	c #EB2939",
">	c #EA293A",
",	c #EF727A",
"'	c #EC3946",
")	c #E9273A",
"!	c #F5DADC",
"~	c #F4BBBF",
"{	c #F4BBBE",
"]	c #F5DADB",
"^	c #EC3845",
"/	c #F4BFC2",
"(	c #EC3A48",
"_	c #F3BBBD",
":	c #F4BEC1",
"<	c #EC3948",
"[	c #F4C1C4",
"}	c #F4BDC1",
"|	c #F4C1C3",
"1	c #F4BDC0",
"2	c #F4C0C3",
"3	c #EA2939",
"..............................",
"..............................",
"..............................",
"..............................",
"..............................",
"...........+@#$$#@+...........",
".........+#%&****%*#+.........",
"........=*&*********-=........",
".......=;************>=.......",
"......+&***************+......",
"......#****,'****',***;)......",
".....+****,!~'**'{],***$+.....",
".....@-***^{!/(^_]:<***&@.....",
".....#-****^{![}]:<*****#.....",
".....$******^}!!|<******$.....",
".....$******^1!![(******$.....",
".....#*****^_]2}!/(****$#.....",
".....@****^_]:<^{!/(***$@.....",
".....+****,]{'**'~!,***>+.....",
"......#****,'****',****#......",
"......+*&**************+......",
".......=%$************=.......",
"........=3*********$%=........",
".........+#;**$**;-#+.........",
"...........+@#$$#@+...........",
"..............................",
"..............................",
"..............................",
"..............................",
".............................."};
