/* XPM */
static char * close_active_xpm[] = {
"30 30 56 1",
" 	c None",
".	c #DC143C",
"+	c #E21E3B",
"@	c #E8273B",
"#	c #EE2D39",
"$	c #F02F39",
"%	c #E9283A",
"&	c #E21F3B",
"*	c #DF1A3C",
"=	c #EB2B3A",
"-	c #F13039",
";	c #EC2B3A",
">	c #E01B3B",
",	c #E11D3B",
"'	c #E01B3C",
")	c #EC2A3A",
"!	c #F7858B",
"~	c #F2424A",
"{	c #ED2B39",
"]	c #E21E3C",
"^	c #F7868B",
"/	c #FFFFFF",
"(	c #FDDBDD",
"_	c #FDDADC",
":	c #FFFEFE",
"<	c #E9273A",
"[	c #F24149",
"}	c #FDDFE0",
"|	c #F2444C",
"1	c #FCDADB",
"2	c #FDDEDF",
"3	c #F2434C",
"4	c #EE2C39",
"5	c #FDE2E3",
"6	c #FDDDDF",
"7	c #EE2D3A",
"8	c #EF2E3A",
"9	c #FDE1E2",
"0	c #EF2E39",
"a	c #FDDDDE",
"b	c #ED2C3A",
"c	c #FDE0E2",
"d	c #E8263A",
"e	c #E9263A",
"f	c #E11D3C",
"g	c #EB2A3A",
"h	c #ED2B3A",
"i	c #DF183C",
"j	c #EE2E39",
"k	c #E01D3B",
"l	c #EF2D39",
"m	c #DE183B",
"n	c #EB293A",
"o	c #DF193C",
"p	c #E11C3B",
"q	c #ED2D3A",
"..............................",
"..............................",
"..............................",
"..............................",
"..............................",
"..............................",
"...........+@#$$#%&...........",
".........*=--------;>.........",
"........,$----------$,........",
".......*$------------$'.......",
".......)---!~----~!---{.......",
"......]---^/(~--~_:^---+......",
"......<---[_/}|[1:23---%......",
"......4----[_/56:23----7......",
"......8-----[6//93-----$......",
"......0-----[a//5|-----$......",
"......b----[1:c6/}|----4......",
"......d---[1:23[_/}|---e......",
"......f---^:_~--~(/^---f......",
".......g---!~----~!---h.......",
".......ij------------$*.......",
"........kl----------8f........",
".........mg--------no.........",
"...........pdql0bd,...........",
"..............................",
"..............................",
"..............................",
"..............................",
"..............................",
".............................."};
