/* XPM */
static char * close_prelight_xpm[] = {
"30 30 32 1",
" 	c None",
".	c #DC143C",
"+	c #E4213B",
"@	c #EA293A",
"#	c #EE2D39",
"$	c #F13039",
"%	c #F03038",
"&	c #F03039",
"*	c #E8273A",
"=	c #F13038",
"-	c #F12F38",
";	c #F02F39",
">	c #F7858B",
",	c #F2424A",
"'	c #F7868B",
")	c #FFFFFF",
"!	c #FDDBDD",
"~	c #FDDADC",
"{	c #FFFEFE",
"]	c #F12F39",
"^	c #F24149",
"/	c #FDDFE0",
"(	c #F2444C",
"_	c #FCDADB",
":	c #FDDEDF",
"<	c #F2434C",
"[	c #FDE2E3",
"}	c #FDDDDF",
"|	c #FDE1E2",
"1	c #FDDDDE",
"2	c #FDE0E2",
"3	c #F02F38",
"..............................",
"..............................",
"..............................",
"..............................",
"..............................",
"...........+@#$$#@+...........",
".........+#%&$$$$%$#+.........",
"........*$&$$$$$$$$$=*........",
".......*-$$$$$$$$$$$$;*.......",
"......+&$$$$$$$$$$$$$$$+......",
"......#$$$$>,$$$$,>$$$-#......",
".....+$$$$')!,$$,~{'$$$]+.....",
".....@=$$$^~)/(^_{:<$$$&@.....",
".....#=$$$$^~)[}{:<$$$$$#.....",
".....$$$$$$$^}))|<$$$$$$$.....",
".....$$$$$$$^1))[($$$$$$$.....",
".....#$$$$$^_{2})/($$$$]#.....",
".....@$$$$^_{:<^~)/($$$]@.....",
".....+$$$$'{~,$$,!)'$$$;+.....",
"......#$$$$>,$$$$,>$$$$#......",
"......+$&$$$$$$$$$$$$$$+......",
".......*%]$$$$$$$$$$$$*.......",
"........*3$$$$$$$$$]%*........",
".........+#-$$]$$-=#+.........",
"...........+@#$$#@+...........",
"..............................",
"..............................",
"..............................",
"..............................",
".............................."};
