/* XPM */
static char * close_active_xpm[] = {
"30 30 71 1",
" 	c None",
".	c #5C7148",
"+	c #976544",
"@	c #C75140",
"#	c #E33F3B",
"$	c #ED343A",
"%	c #E33E3B",
"&	c #C8503F",
"*	c #9A6444",
"=	c #806B46",
"-	c #D7473D",
";	c #F13039",
">	c #DA463D",
",	c #856A46",
"'	c #936644",
")	c #EA383A",
"!	c #EB363A",
"~	c #966545",
"{	c #7F6B46",
"]	c #846A46",
"^	c #D6483D",
"/	c #F7858B",
"(	c #F2424A",
"_	c #DB443C",
":	c #5D7148",
"<	c #956645",
"[	c #F7868B",
"}	c #FFFFFF",
"|	c #FDDBDD",
"1	c #FDDADC",
"2	c #FFFEFE",
"3	c #C5533F",
"4	c #F24149",
"5	c #FDDFE0",
"6	c #F2444C",
"7	c #FCDADB",
"8	c #FDDEDF",
"9	c #F2434C",
"0	c #C8513F",
"a	c #E0423B",
"b	c #FDE2E3",
"c	c #FDDDDF",
"d	c #E33F3C",
"e	c #EA383B",
"f	c #FDE1E2",
"g	c #E9393A",
"h	c #FDDDDE",
"i	c #ED353A",
"j	c #DE433C",
"k	c #FDE0E2",
"l	c #E23F3C",
"m	c #C25440",
"n	c #C65240",
"o	c #8F6745",
"p	c #956545",
"q	c #D34B3E",
"r	c #D9473D",
"s	c #786C47",
"t	c #E63B3B",
"u	c #8B6845",
"v	c #E8393B",
"w	c #916745",
"x	c #786C46",
"y	c #D24B3E",
"z	c #D4493E",
"A	c #7C6B46",
"B	c #DE443C",
"C	c #E83A3B",
"D	c #DF423C",
"E	c #C3533F",
"F	c #926645",
"..............................",
"..............................",
"..............................",
"..............................",
"..............................",
"..............................",
"...........+@#$$%&*...........",
".........=-;;;;;;;;>,.........",
"........');;;;;;;;;;!~........",
".......{);;;;;;;;;;;;!].......",
".......^;;;/(;;;;(/;;;_:......",
"......<;;;[}|(;;(12[;;;*......",
"......3;;;41}5647289;;;0......",
"......a;;;;41}bc289;;;;d......",
"......e;;;;;4c}}f9;;;;;$......",
"......g;;;;;4h}}b6;;;;;i......",
"......j;;;;472kc}56;;;;l......",
"......m;;;4728941}56;;;n......",
"......o;;;[21(;;(|}[;;;p......",
".......q;;;/(;;;;(/;;;r.......",
".......st;;;;;;;;;;;;)=.......",
"........uv;;;;;;;;;;ew........",
".........xy;;;;;;;;zA.........",
"...........omBvCDEF...........",
"..............................",
"..............................",
"..............................",
"..............................",
"..............................",
".............................."};
