/* XPM */
static char * close_pressed_xpm[] = {
"30 30 32 1",
" 	c None",
".	c #5C7148",
"+	c #976544",
"@	c #B75941",
"#	c #C9513F",
"$	c #D14C3E",
"%	c #D24B3D",
"&	c #D24B3E",
"*	c #D34B3E",
"=	c #AD5E42",
"-	c #D34B3D",
";	c #D34A3D",
">	c #D24A3E",
",	c #D87F7C",
"'	c #D45349",
")	c #C9503F",
"!	c #D8807C",
"~	c #DEE1DD",
"{	c #DDC3C0",
"]	c #DDC2BF",
"^	c #DEE0DC",
"/	c #D34A3E",
"(	c #DDC6C2",
"_	c #D4554B",
":	c #DCC2BE",
"<	c #D4544B",
"[	c #DDC9C5",
"}	c #DDC5C2",
"|	c #DDC8C4",
"1	c #DDC5C1",
"2	c #DDC7C4",
"3	c #D24A3D",
"..............................",
"..............................",
"..............................",
"..............................",
"..............................",
"...........+@#$$#@+...........",
".........+#%&****%*#+.........",
"........=*&*********-=........",
".......=;************>=.......",
"......+&***************+......",
"......#****,'****',***;)......",
".....+****!~{'**']^!***/+.....",
".....@-***']~(_':^(<***&@.....",
".....#-****']~[}^(<*****#.....",
".....$******'}~~|<******$.....",
".....$******'1~~[_******$.....",
".....#*****':^2}~(_****/#.....",
".....@****':^(<']~(_***/@.....",
".....+****!^]'**'{~!***>+.....",
"......#****,'****',****#......",
"......+*&**************+......",
".......=%/************=.......",
"........=3*********/%=........",
".........+#;**/**;-#+.........",
"...........+@#$$#@+...........",
"..............................",
"..............................",
"..............................",
"..............................",
".............................."};
