/* XPM */
static char * close_inactive_xpm[] = {
"30 30 56 1",
" 	c None",
".	c #5C7148",
"+	c #7E6B46",
"@	c #9D6344",
"#	c #B15C42",
"$	c #B85941",
"%	c #9E6244",
"&	c #806B46",
"*	c #706E47",
"=	c #A95F43",
"-	c #BA5841",
";	c #AA5E43",
">	c #726E47",
",	c #7B6C46",
"'	c #B55A42",
")	c #B65A41",
"!	c #7D6B46",
"~	c #6F6E47",
"{	c #A75F43",
"]	c #BE7B70",
"^	c #BB5D49",
"/	c #AB5E42",
"(	c #7C6C46",
"_	c #BE7C70",
":	c #C4C9C1",
"<	c #C3B0A8",
"[	c #C3B0A7",
"}	c #C4C8C0",
"|	c #7F6B46",
"1	c #9C6344",
"2	c #C3B3AA",
"3	c #BB5E4A",
"4	c #C2B0A7",
"5	c #C3B2AA",
"6	c #9E6344",
"7	c #AE5D42",
"8	c #C3B5AC",
"9	c #B05C42",
"0	c #C3B4AC",
"a	c #B45B42",
"b	c #C3B2A9",
"c	c #B75941",
"d	c #AD5D42",
"e	c #AF5C42",
"f	c #9A6444",
"g	c #796C47",
"h	c #7C6B47",
"i	c #A66043",
"j	c #6B6F47",
"k	c #B35B42",
"l	c #766D47",
"m	c #A56043",
"n	c #6E6E47",
"o	c #786C47",
"p	c #AD5E42",
"q	c #7A6C46",
"..............................",
"..............................",
"..............................",
"..............................",
"..............................",
"..............................",
"...........+@#$$#%&...........",
".........*=--------;>.........",
"........,'----------)!........",
".......~'------------)>.......",
".......{---]^----^]---/.......",
"......(---_:<^--^[}_---|......",
"......1---^[:23^4}53---6......",
"......7----^[:85}53----9......",
"......'-----^5::03-----$......",
"......a-----^b::83-----c......",
"......d----^4}05:23----e......",
"......f---^4}53^[:23---1......",
"......g---_}[^--^<:_---h......",
".......i---]^----^]---=.......",
".......jk------------'*.......",
"........la----------'g........",
".........jm--------in.........",
"...........ofpaadfq...........",
"..............................",
"..............................",
"..............................",
"..............................",
"..............................",
".............................."};
