/* XPM */
static char * close_inactive_xpm[] = {
"30 30 61 1",
" 	c None",
".	c #034F84",
"+	c #604C7D",
"@	c #8C4774",
"#	c #A5446C",
"$	c #AE4269",
"%	c #8E4773",
"&	c #634C7D",
"*	c #474D80",
"=	c #9B456F",
"-	c #B14267",
";	c #9D456F",
">	c #4B4D80",
",	c #5B4C7E",
"'	c #AB436A",
")	c #AC4369",
"!	c #5F4C7D",
"~	c #454D81",
"{	c #9A4670",
"]	c #B56E88",
"^	c #B2496C",
"/	c #9E456E",
"(	c #5D4C7E",
"_	c #B56F88",
":	c #BBC2CE",
"<	c #BAA8B7",
"[	c #BAA7B7",
"}	c #BBC1CD",
"|	c #624C7D",
"1	c #8A4874",
"2	c #B2486C",
"3	c #BAABB9",
"4	c #B24A6D",
"5	c #B9A7B6",
"6	c #BAAAB9",
"7	c #B2496D",
"8	c #8D4773",
"9	c #A2446D",
"0	c #BAADBB",
"a	c #BAA9B9",
"b	c #A4446C",
"c	c #AA436A",
"d	c #BAACBB",
"e	c #BAA9B8",
"f	c #AD4269",
"g	c #A1446D",
"h	c #884875",
"i	c #8B4774",
"j	c #584C7E",
"k	c #974671",
"l	c #9C456F",
"m	c #3D4E81",
"n	c #A8436B",
"o	c #534D7F",
"p	c #A9436A",
"q	c #984670",
"r	c #424D81",
"s	c #564C7F",
"t	c #A0456E",
"u	c #894875",
"v	c #5A4C7E",
"..............................",
"..............................",
"..............................",
"..............................",
"..............................",
"..............................",
"...........+@#$$#%&...........",
".........*=--------;>.........",
"........,'----------)!........",
".......~'------------)>.......",
".......{---]^----^]---/.......",
"......(---_:<^--^[}_---|......",
"......1---2[:3425}67---8......",
"......9----2[:0a}67----b......",
"......c-----2a::d7-----$......",
"......c-----2e::04-----f......",
"......g----25}da:34----b......",
"......h---25}672[:34---i......",
"......j---_}[^--^<:_---(......",
".......k---]^----^]---l.......",
".......mn------------'*.......",
"........op----------cj........",
".........mk--------qr.........",
"...........shtpcguv...........",
"..............................",
"..............................",
"..............................",
"..............................",
"..............................",
".............................."};
