/* XPM */
static char * close_pressed_xpm[] = {
"30 30 25 1",
" 	c None",
".	c #034F84",
"+	c #844876",
"@	c #AD4269",
"#	c #C23E5F",
"$	c #CC3C59",
"%	c #CD3B58",
"&	c #CE3B58",
"*	c #A0456E",
"=	c #D37889",
"-	c #CF4660",
";	c #C23E5E",
">	c #D37989",
",	c #DADDE3",
"'	c #D8BFC8",
")	c #D8BEC7",
"!	c #DADCE3",
"~	c #CF465F",
"{	c #D8C2CA",
"]	c #CF4761",
"^	c #D8BEC6",
"/	c #D8C1C9",
"(	c #D8C5CD",
"_	c #D8C4CC",
":	c #D8C3CC",
"..............................",
"..............................",
"..............................",
"..............................",
"..............................",
"...........+@#$$#@+...........",
".........+#%%&&&&%&#+.........",
"........*&%&&&&&&&&&&*........",
".......*&&&&&&&&&&&&&%*.......",
"......+%&&&&&&&&&&&&&&&+......",
"......#&&&&=-&&&&-=&&&&;......",
".....+&&&&>,'-&&-)!>&&&&+.....",
".....@&&&&~),{]~^!/]&&&%@.....",
".....#&&&&&~),(/!/]&&&&&#.....",
".....$&&&&&&~/,,_]&&&&&&$.....",
".....$&&&&&&~/,,(]&&&&&&$.....",
".....#&&&&&~^!:/,{]&&&&&#.....",
".....@&&&&~^!/]~),{]&&&&@.....",
".....+&&&&>!)-&&-',>&&&%+.....",
"......#&&&&=-&&&&-=&&&&#......",
"......+&%&&&&&&&&&&&&&&+......",
".......*%&&&&&&&&&&&&&*.......",
"........*%&&&&&&&&&&%*........",
".........+#&&&&&&&&#+.........",
"...........+@#$$#@+...........",
"..............................",
"..............................",
"..............................",
"..............................",
".............................."};
