/* XPM */
static char * close_pressed_xpm[] = {
"30 30 29 1",
" 	c None",
".	c #3CB371",
"+	c #8D9E66",
"@	c #B1895C",
"#	c #C57954",
"$	c #CE7050",
"%	c #CF6E4E",
"&	c #CF6E4F",
"*	c #D06E4F",
"=	c #A6915F",
"-	c #D06E4E",
";	c #D06D4E",
">	c #CF6D4F",
",	c #D59584",
"'	c #D17358",
")	c #DCECE1",
"!	c #DAD0C5",
"~	c #DACFC4",
"{	c #DCEBE0",
"]	c #D06D4F",
"^	c #D17357",
"/	c #DAD3C7",
"(	c #D17459",
"_	c #D9CFC3",
":	c #DAD2C6",
"<	c #DAD5CA",
"[	c #DAD5C9",
"}	c #DAD4C9",
"|	c #CF6D4E",
"..............................",
"..............................",
"..............................",
"..............................",
"..............................",
"...........+@#$$#@+...........",
".........+#%&****%*#+.........",
"........=*&*********-=........",
".......=;************>=.......",
"......+&***************+......",
"......#****,'****',***;#......",
".....+****,)!'**'~{,***]+.....",
".....@-***^~)/(^_{:(***&@.....",
".....#-****^~)<:{:(*****#.....",
".....$******^:))[(******$.....",
".....$******^:))<(******$.....",
".....#*****^_{}:)/(****]#.....",
".....@****^_{:(^~)/(***]@.....",
".....+****,{~'**'!),***>+.....",
"......#****,'****',****#......",
"......+*&**************+......",
".......=%]************=.......",
"........=|*********]%=........",
".........+#;**]**;-#+.........",
"...........+@#$$#@+...........",
"..............................",
"..............................",
"..............................",
"..............................",
".............................."};
