/* XPM */
static char * close_active_xpm[] = {
"30 30 74 1",
" 	c None",
".	c #3CB371",
"+	c #8D9D66",
"@	c #C37A55",
"#	c #E25545",
"$	c #ED3D3C",
"%	c #E25444",
"&	c #C57953",
"*	c #909C65",
"=	c #70A86B",
"-	c #D5664C",
";	c #F13039",
">	c #D8634A",
",	c #76A66A",
"'	c #87A067",
")	c #EA453F",
"!	c #EB423E",
"~	c #8B9E66",
"{	c #6FA86B",
"]	c #E9463F",
"^	c #75A76B",
"/	c #D4694D",
"(	c #F7858B",
"_	c #F2424A",
":	c #D96249",
"<	c #3EB371",
"[	c #899F67",
"}	c #F7868B",
"|	c #FFFFFF",
"1	c #FDDBDD",
"2	c #FDDADC",
"3	c #FFFEFE",
"4	c #C17D55",
"5	c #F24149",
"6	c #FDDFE0",
"7	c #F2444C",
"8	c #FCDADB",
"9	c #FDDEDF",
"0	c #F2434C",
"a	c #C47954",
"b	c #DE5C47",
"c	c #FDE2E3",
"d	c #FDDDDF",
"e	c #E15646",
"f	c #E94740",
"g	c #FDE1E2",
"h	c #E84940",
"i	c #FDDDDE",
"j	c #EC3F3D",
"k	c #DC5D48",
"l	c #FDE0E2",
"m	c #E05746",
"n	c #BE8057",
"o	c #C27C55",
"p	c #83A168",
"q	c #8A9E66",
"r	c #D16D4F",
"s	c #D7674C",
"t	c #66AB6D",
"u	c #E54D42",
"v	c #7EA368",
"w	c #E74A41",
"x	c #85A168",
"y	c #66AA6C",
"z	c #D06F4F",
"A	c #D26B4E",
"B	c #6BA96C",
"C	c #83A268",
"D	c #BD8057",
"E	c #DC5E48",
"F	c #E84A41",
"G	c #DD5D48",
"H	c #BF7F56",
"I	c #86A067",
"..............................",
"..............................",
"..............................",
"..............................",
"..............................",
"..............................",
"...........+@#$$%&*...........",
".........=-;;;;;;;;>,.........",
"........');;;;;;;;;;!~........",
".......{];;;;;;;;;;;;!^.......",
"......./;;;(_;;;;_(;;;:<......",
"......[;;;}|1_;;_23};;;*......",
"......4;;;52|6758390;;;a......",
"......b;;;;52|cd390;;;;e......",
"......f;;;;;5d||g0;;;;;$......",
"......h;;;;;5i||c7;;;;;j......",
"......k;;;;583ld|67;;;;m......",
"......n;;;5839052|67;;;o......",
"......p;;;}32_;;_1|};;;q......",
".......r;;;(_;;;;_(;;;s.......",
".......tu;;;;;;;;;;;;)=.......",
"........vw;;;;;;;;;;fx........",
".........yz;;;;;;;;AB.........",
"...........CDEwFGHI...........",
"..............................",
"..............................",
"..............................",
"..............................",
"..............................",
".............................."};
