/* XPM */
static char * close_prelight_xpm[] = {
"30 30 33 1",
" 	c None",
".	c #3CB371",
"+	c #A19361",
"@	c #CD7151",
"#	c #E45143",
"$	c #EF383B",
"%	c #F03038",
"&	c #F03039",
"*	c #F13039",
"=	c #BF7E56",
"-	c #F13038",
";	c #F12F38",
">	c #F02F39",
",	c #F7858B",
"'	c #F2424A",
")	c #F7868B",
"!	c #FFFFFF",
"~	c #FDDBDD",
"{	c #FDDADC",
"]	c #FFFEFE",
"^	c #F12F39",
"/	c #F24149",
"(	c #FDDFE0",
"_	c #F2444C",
":	c #FCDADB",
"<	c #FDDEDF",
"[	c #F2434C",
"}	c #FDE2E3",
"|	c #FDDDDF",
"1	c #FDE1E2",
"2	c #FDDDDE",
"3	c #FDE0E2",
"4	c #F02F38",
"..............................",
"..............................",
"..............................",
"..............................",
"..............................",
"...........+@#$$#@+...........",
".........+#%&****%*#+.........",
"........=*&*********-=........",
".......=;************>=.......",
"......+&***************+......",
"......#****,'****',***;#......",
".....+****)!~'**'{])***^+.....",
".....@-***/{!(_/:]<[***&@.....",
".....#-****/{!}|]<[*****#.....",
".....$******/|!!1[******$.....",
".....$******/2!!}_******$.....",
".....#*****/:]3|!(_****^#.....",
".....@****/:]<[/{!(_***^@.....",
".....+****)]{'**'~!)***>+.....",
"......#****,'****',****#......",
"......+*&**************+......",
".......=%^************=.......",
"........=4*********^%=........",
".........+#;**^**;-#+.........",
"...........+@#$$#@+...........",
"..............................",
"..............................",
"..............................",
"..............................",
".............................."};
