/* XPM */
static char * close_inactive_xpm[] = {
"30 30 60 1",
" 	c None",
".	c #432158",
"+	c #712455",
"@	c #952650",
"#	c #AB284D",
"$	c #B3294B",
"%	c #972650",
"&	c #732454",
"*	c #5F2256",
"=	c #A2274E",
"-	c #B6294A",
";	c #A4274E",
">	c #622356",
",	c #6D2355",
"'	c #B1294C",
")	c #B2294B",
"!	c #702355",
"~	c #5D2356",
"{	c #A1274E",
"]	c #BA6375",
"^	c #B63451",
"/	c #A5274D",
"(	c #6F2355",
"_	c #BA6475",
":	c #C0BCC3",
"<	c #BEA2AB",
"[	c #BEA1AB",
"}	c #C0BCC2",
"|	c #722355",
"1	c #942650",
"2	c #BEA5AD",
"3	c #B63652",
"4	c #BEA1AA",
"5	c #BEA4AD",
"6	c #B63552",
"7	c #962750",
"8	c #A9284D",
"9	c #BEA7B0",
"0	c #BEA3AD",
"a	c #B0294C",
"b	c #BEA6AF",
"c	c #AF294C",
"d	c #BEA3AC",
"e	c #A7284D",
"f	c #AA284D",
"g	c #922651",
"h	c #6B2355",
"i	c #6E2355",
"j	c #9F274F",
"k	c #A3274E",
"l	c #592257",
"m	c #AE284C",
"n	c #672355",
"o	c #AF284C",
"p	c #9E274F",
"q	c #A0274F",
"r	c #5C2256",
"s	c #6A2355",
"t	c #922650",
"u	c #6C2355",
"..............................",
"..............................",
"..............................",
"..............................",
"..............................",
"..............................",
"...........+@#$$#%&...........",
".........*=--------;>.........",
"........,'----------)!........",
".......~'------------)>.......",
".......{---]^----^]---/.......",
"......(---_:<^--^[}_---|......",
"......1---^[:23^4}56---7......",
"......8----^[:90}56----#......",
"......a-----^0::b6-----$......",
"......c-----^d::93-----)......",
"......e----^4}b0:23----f......",
"......g---^4}56^[:23---1......",
"......h---_}[^--^<:_---i......",
".......j---]^----^]---k.......",
".......lm------------'*.......",
"........no----------ah........",
".........lp--------qr.........",
"...........sgeocetu...........",
"..............................",
"..............................",
"..............................",
"..............................",
"..............................",
".............................."};
