/* XPM */
static char * maximize_active_xpm[] = {
"30 30 14 1",
" 	c None",
".	c #432158",
"+	c #F9F9F9",
"@	c #FFFFFF",
"#	c #6C5E77",
"$	c #B3AEB7",
"%	c #655672",
"&	c #B3AFB7",
"*	c #5C4A6B",
"=	c #492E5C",
"-	c #FCFCFC",
";	c #B7B2BA",
">	c #B5B0B9",
",	c #543F65",
"..............................",
"..............................",
"..............................",
"..............................",
"..............................",
"..............................",
"..............................",
"..............................",
"..............................",
"..............................",
"..............................",
"..............+@@@@#..........",
"..............$@@@@%..........",
"...............&@@@*..........",
"..........=-;...>@@,..........",
"..........,@@>...;-=..........",
"..........*@@@&...............",
"..........%@@@@$..............",
"..........#@@@@+..............",
"..............................",
"..............................",
"..............................",
"..............................",
"..............................",
"..............................",
"..............................",
"..............................",
"..............................",
"..............................",
".............................."};
