/* XPM */
static char * close_active_xpm[] = {
"30 30 74 1",
" 	c None",
".	c #0078D7",
"+	c #846BBD",
"@	c #C05593",
"#	c #E14166",
"$	c #ED3549",
"%	c #E14065",
"&	c #C25591",
"*	c #896ABB",
"=	c #6371CA",
"-	c #D44A7B",
";	c #F13039",
">	c #D74878",
",	c #6A70C8",
"'	c #7E6CC0",
")	c #E93953",
"!	c #EB374F",
"~	c #836BBE",
"{	c #6171CA",
"]	c #E93954",
"^	c #6870C8",
"/	c #D24C7F",
"(	c #F7858B",
"_	c #F2424A",
":	c #D84776",
"<	c #0D78D7",
"[	c #816CC0",
"}	c #F7868B",
"|	c #FFFFFF",
"1	c #FDDBDD",
"2	c #FDDADC",
"3	c #FFFEFE",
"4	c #886ABC",
"5	c #BE5796",
"6	c #F24149",
"7	c #FDDFE0",
"8	c #F2444C",
"9	c #FCDADB",
"0	c #FDDEDF",
"a	c #F2434C",
"b	c #C25592",
"c	c #DD456F",
"d	c #FDE2E3",
"e	c #FDDDDF",
"f	c #E04168",
"g	c #E83A56",
"h	c #FDE1E2",
"i	c #E83B57",
"j	c #FDDDDE",
"k	c #EC364B",
"l	c #DB4571",
"m	c #FDE0E2",
"n	c #DF4169",
"o	c #BA599A",
"p	c #BF5695",
"q	c #7A6DC2",
"r	c #816BBE",
"s	c #CF4E83",
"t	c #D54A7C",
"u	c #5673CE",
"v	c #E43D5D",
"w	c #746EC4",
"x	c #E73B59",
"y	c #7B6DC2",
"z	c #5673CD",
"A	c #CE4F85",
"B	c #D04D81",
"C	c #5D72CB",
"D	c #796DC2",
"E	c #DB4671",
"F	c #E73B58",
"G	c #DC4570",
"H	c #BC5898",
"I	c #7D6CC1",
"..............................",
"..............................",
"..............................",
"..............................",
"..............................",
"..............................",
"...........+@#$$%&*...........",
".........=-;;;;;;;;>,.........",
"........');;;;;;;;;;!~........",
".......{];;;;;;;;;;;;!^.......",
"......./;;;(_;;;;_(;;;:<......",
"......[;;;}|1_;;_23};;;4......",
"......5;;;62|786930a;;;b......",
"......c;;;;62|de30a;;;;f......",
"......g;;;;;6e||ha;;;;;$......",
"......i;;;;;6j||d8;;;;;k......",
"......l;;;;693me|78;;;;n......",
"......o;;;6930a62|78;;;p......",
"......q;;;}32_;;_1|};;;r......",
".......s;;;(_;;;;_(;;;t.......",
".......uv;;;;;;;;;;;;)=.......",
"........wx;;;;;;;;;;gy........",
".........zA;;;;;;;;BC.........",
"...........DoExFGHI...........",
"..............................",
"..............................",
"..............................",
"..............................",
"..............................",
".............................."};
