/* XPM */
static char * close_inactive_xpm[] = {
"30 30 60 1",
" 	c None",
".	c #0078D7",
"+	c #6072CB",
"@	c #8C69B9",
"#	c #A561AB",
"$	c #AE5EA5",
"%	c #8E68B8",
"&	c #6371CA",
"*	c #4675D1",
"=	c #9B64B1",
"-	c #B15DA2",
";	c #9D64B0",
">	c #4B74D0",
",	c #5B72CC",
"'	c #AB5FA7",
")	c #AC5FA6",
"!	c #5E72CB",
"~	c #4475D1",
"{	c #9965B2",
"]	c #B57FB6",
"^	c #B162A5",
"/	c #9E63AF",
"(	c #5D72CC",
"_	c #BBCAEC",
":	c #BAB2DA",
"<	c #BBCAEB",
"[	c #6171CA",
"}	c #8A69BA",
"|	c #B161A5",
"1	c #BAB5DC",
"2	c #B9B2D9",
"3	c #BAB4DB",
"4	c #8D68B9",
"5	c #A262AD",
"6	c #BAB7DD",
"7	c #A461AB",
"8	c #AA5FA7",
"9	c #BAB6DD",
"0	c #AA60A8",
"a	c #AD5EA5",
"b	c #A163AE",
"c	c #A462AC",
"d	c #886ABC",
"e	c #8B69BA",
"f	c #5873CD",
"g	c #5D72CB",
"h	c #9766B4",
"i	c #9C65B1",
"j	c #3D76D2",
"k	c #A860A8",
"l	c #5273CE",
"m	c #A960A8",
"n	c #3D75D2",
"o	c #9666B4",
"p	c #9865B3",
"q	c #4275D1",
"r	c #5673CD",
"s	c #A063AE",
"t	c #896ABB",
"u	c #5972CC",
"..............................",
"..............................",
"..............................",
"..............................",
"..............................",
"..............................",
"...........+@#$$#%&...........",
".........*=--------;>.........",
"........,'----------)!........",
".......~'------------)>.......",
".......{---]^----^]---/.......",
"......(---]_:^--^:<]---[......",
"......}---|:_1^|2<3^---4......",
"......5----|:_63<3^----7......",
"......8-----|3__9^-----$......",
"......0-----|3__6^-----a......",
"......b----|2<93_1^----c......",
"......d---|2<3^|:_1^---e......",
"......f---]<:^--^:_]---g......",
".......h---]^----^]---i.......",
".......jk------------'*.......",
"........lm----------8f........",
".........no--------pq.........",
"...........rdsm0btu...........",
"..............................",
"..............................",
"..............................",
"..............................",
"..............................",
".............................."};
