/* XPM */
static char * close_inactive_xpm[] = {
"30 30 62 1",
" 	c None",
".	c #454C59",
"+	c #724955",
"@	c #964551",
"#	c #AC424D",
"$	c #B3404C",
"%	c #974550",
"&	c #744955",
"*	c #604B57",
"=	c #A3434F",
"-	c #B6404B",
";	c #A5434F",
">	c #634A57",
",	c #6E4956",
"'	c #B1414C",
")	c #B2414C",
"!	c #714956",
"~	c #5F4B57",
"{	c #A1434F",
"]	c #BA6D75",
"^	c #B74752",
"/	c #A5424E",
"(	c #704956",
"_	c #BA6E75",
":	c #C0C1C3",
"<	c #BFA8AC",
"[	c #BFA7AB",
"}	c #C0C0C3",
"|	c #734955",
"1	c #944551",
"2	c #BFAAAE",
"3	c #B74853",
"4	c #BEA7AA",
"5	c #BFAAAD",
"6	c #974551",
"7	c #A9424E",
"8	c #BFACB0",
"9	c #BFA9AD",
"0	c #AB424E",
"a	c #B0414D",
"b	c #BFACAF",
"c	c #B0414C",
"d	c #BFA9AC",
"e	c #A8424E",
"f	c #BFABAF",
"g	c #AA424D",
"h	c #924652",
"i	c #954551",
"j	c #6C4A56",
"k	c #6F4956",
"l	c #9F444F",
"m	c #5A4B58",
"n	c #AE414D",
"o	c #684A56",
"p	c #AF414D",
"q	c #9F4450",
"r	c #A0434F",
"s	c #5D4B57",
"t	c #6B4956",
"u	c #A7434E",
"v	c #934551",
"w	c #6D4956",
"..............................",
"..............................",
"..............................",
"..............................",
"..............................",
"..............................",
"...........+@#$$#%&...........",
".........*=--------;>.........",
"........,'----------)!........",
".......~'------------)>.......",
".......{---]^----^]---/.......",
"......(---_:<^--^[}_---|......",
"......1---^[:23^4}53---6......",
"......7----^[:89}53----0......",
"......a-----^9::b3-----$......",
"......c-----^d::83-----$......",
"......e----^4}f9:23----g......",
"......h---^4}53^[:23---i......",
"......j---_}[^--^<:_---k......",
".......l---]^----^]---=.......",
".......mn------------'*.......",
"........op----------aj........",
".........mq--------rs.........",
"...........thupcevw...........",
"..............................",
"..............................",
"..............................",
"..............................",
"..............................",
".............................."};
