/* XPM */
static char * close_active_xpm[] = {
"30 30 73 1",
" 	c None",
".	c #454C59",
"+	c #8F4652",
"@	c #C43D48",
"#	c #E2353F",
"$	c #ED313B",
"%	c #C63C47",
"&	c #934651",
"*	c #744955",
"=	c #D63843",
"-	c #F13039",
";	c #D93842",
">	c #7A4955",
",	c #8A4652",
"'	c #EA333C",
")	c #EB323B",
"!	c #8E4652",
"~	c #734956",
"{	c #E9333C",
"]	c #784955",
"^	c #D43943",
"/	c #F7858B",
"(	c #F2424A",
"_	c #DA3741",
":	c #474C59",
"<	c #8C4753",
"[	c #F7868B",
"}	c #FFFFFF",
"|	c #FDDBDD",
"1	c #FDDADC",
"2	c #FFFEFE",
"3	c #924552",
"4	c #C23D48",
"5	c #F24149",
"6	c #FDDFE0",
"7	c #F2444C",
"8	c #FCDADB",
"9	c #FDDEDF",
"0	c #F2434C",
"a	c #C53D47",
"b	c #DF3640",
"c	c #FDE2E3",
"d	c #FDDDDF",
"e	c #E23540",
"f	c #E9333D",
"g	c #FDE1E2",
"h	c #E8333D",
"i	c #FDDDDE",
"j	c #EC323B",
"k	c #DD3741",
"l	c #FDE0E2",
"m	c #E1353F",
"n	c #BF3E49",
"o	c #C33D48",
"p	c #864753",
"q	c #8D4653",
"r	c #D13A44",
"s	c #D73943",
"t	c #6B4A56",
"u	c #E5343D",
"v	c #824853",
"w	c #E7333D",
"x	c #884753",
"y	c #6B4956",
"z	c #D03B45",
"A	c #D33944",
"B	c #6F4956",
"C	c #854753",
"D	c #BE3E49",
"E	c #DC3741",
"F	c #DD3740",
"G	c #C03D48",
"H	c #894753",
"..............................",
"..............................",
"..............................",
"..............................",
"..............................",
"..............................",
"...........+@#$$#%&...........",
".........*=--------;>.........",
"........,'----------)!........",
".......~{------------)].......",
".......^---/(----(/---_:......",
"......<---[}|(--(12[---3......",
"......4---51}6758290---a......",
"......b----51}cd290----e......",
"......f-----5d}}g0-----$......",
"......h-----5i}}c7-----j......",
"......k----582ld}67----m......",
"......n---5829051}67---o......",
"......p---[21(--(|}[---q......",
".......r---/(----(/---s.......",
".......tu------------'*.......",
"........vw----------fx........",
".........yz--------AB.........",
"...........CDEwhFGH...........",
"..............................",
"..............................",
"..............................",
"..............................",
"..............................",
".............................."};
