/* XPM */
static char * close_pressed_xpm[] = {
"30 30 28 1",
" 	c None",
".	c #454C59",
"+	c #8F4652",
"@	c #B3404C",
"#	c #C63D47",
"$	c #CF3A45",
"%	c #D03A44",
"&	c #D13A44",
"*	c #A7424E",
"=	c #D13944",
"-	c #D03944",
";	c #D6787F",
">	c #D1454F",
",	c #C63C47",
"'	c #DDDDDE",
")	c #DBBFC2",
"!	c #DBBEC1",
"~	c #DDDCDD",
"{	c #D1444E",
"]	c #DBC2C4",
"^	c #D14650",
"/	c #DABEC0",
"(	c #DBC1C3",
"_	c #DBC5C7",
":	c #DBC0C3",
"<	c #DBC4C6",
"[	c #DBC0C2",
"}	c #DBC3C6",
"..............................",
"..............................",
"..............................",
"..............................",
"..............................",
"...........+@#$$#@+...........",
".........+#%%&&&&%&#+.........",
"........*&%&&&&&&&&&&*........",
".......*=&&&&&&&&&&&&-*.......",
"......+%&&&&&&&&&&&&&&&+......",
"......#&&&&;>&&&&>;&&&=,......",
".....+&&&&;')>&&>!~;&&&=+.....",
".....@&&&&{!']^{/~(^&&&%@.....",
".....#&&&&&{!'_:~(^&&&&&#.....",
".....$&&&&&&{:''<^&&&&&&$.....",
".....$&&&&&&{[''_^&&&&&&$.....",
".....#&&&&&{/~}:']^&&&&=#.....",
".....@&&&&{/~(^{!']^&&&=@.....",
".....+&&&&;~!>&&>)';&&&-+.....",
"......#&&&&;>&&&&>;&&&&#......",
"......+&%&&&&&&&&&&&&&&+......",
".......*%=&&&&&&&&&&&&*.......",
"........*-&&&&&&&&&=%*........",
".........+#=&&=&&=&#+.........",
"...........+@#$$#@+...........",
"..............................",
"..............................",
"..............................",
"..............................",
".............................."};
