/* XPM */
static char * maximize_pressed_xpm[] = {
"30 30 15 1",
" 	c None",
".	c #454C59",
"+	c #D7D8D9",
"@	c #DDDDDE",
"#	c #636870",
"$	c #9C9EA2",
"%	c #DCDDDE",
"&	c #5E626C",
"*	c #9D9FA3",
"=	c #575D67",
"-	c #9EA0A4",
";	c #515662",
">	c #A0A2A5",
",	c #DADBDC",
"'	c #49505C",
"..............................",
"..............................",
"..............................",
"..............................",
"..............................",
"..............................",
"..............................",
"..............................",
"..............................",
"..............................",
"...............+@@@@#.........",
"...............$%@@@&.........",
"................*%@@=.........",
".................-%@;.........",
"..................>,'.........",
".........',>..................",
".........;@%-.................",
".........=@@%*................",
".........&@@@%$...............",
".........#@@@@+...............",
"..............................",
"..............................",
"..............................",
"..............................",
"..............................",
"..............................",
"..............................",
"..............................",
"..............................",
".............................."};
