/* XPM */
static char * close_active_xpm[] = {
"30 30 74 1",
" 	c None",
".	c #778899",
"+	c #A37887",
"@	c #CC5F6C",
"#	c #E44650",
"$	c #EE3740",
"%	c #E54550",
"&	c #CD5E6B",
"*	c #A67786",
"=	c #918090",
"-	c #DA515D",
";	c #F13039",
">	c #DD4F5B",
",	c #957F8F",
"'	c #A07A8A",
")	c #EB3C46",
"!	c #EC3A44",
"~	c #A27988",
"{	c #908090",
"]	c #947F8F",
"^	c #D9535F",
"/	c #F7858B",
"(	c #F2424A",
"_	c #DE4E59",
":	c #788899",
"<	c #A17A89",
"[	c #F7868B",
"}	c #FFFFFF",
"|	c #FDDBDD",
"1	c #FDDADC",
"2	c #FFFEFE",
"3	c #A57787",
"4	c #CA616E",
"5	c #F24149",
"6	c #FDDFE0",
"7	c #F2444C",
"8	c #FCDADB",
"9	c #FDDEDF",
"0	c #F2434C",
"a	c #CD5F6B",
"b	c #E24B55",
"c	c #FDE2E3",
"d	c #FDDDDF",
"e	c #E44652",
"f	c #EA3D48",
"g	c #FDE1E2",
"h	c #EA3E48",
"i	c #FDDDDE",
"j	c #ED3842",
"k	c #E04B57",
"l	c #FDE0E2",
"m	c #E34752",
"n	c #C76370",
"o	c #CB606D",
"p	c #9D7B8B",
"q	c #A17989",
"r	c #D65662",
"s	c #DB525D",
"t	c #8B8293",
"u	c #E7414B",
"v	c #9A7D8C",
"w	c #E93E49",
"x	c #9E7B8B",
"y	c #8B8292",
"z	c #D65763",
"A	c #D85561",
"B	c #8E8191",
"C	c #9C7B8B",
"D	c #C76371",
"E	c #E04C57",
"F	c #E93F49",
"G	c #E04B56",
"H	c #C8626F",
"I	c #9F7A8A",
"..............................",
"..............................",
"..............................",
"..............................",
"..............................",
"..............................",
"...........+@#$$%&*...........",
".........=-;;;;;;;;>,.........",
"........');;;;;;;;;;!~........",
".......{);;;;;;;;;;;;!].......",
".......^;;;/(;;;;(/;;;_:......",
"......<;;;[}|(;;(12[;;;3......",
"......4;;;51}6758290;;;a......",
"......b;;;;51}cd290;;;;e......",
"......f;;;;;5d}}g0;;;;;$......",
"......h;;;;;5i}}c7;;;;;j......",
"......k;;;;582ld}67;;;;m......",
"......n;;;5829051}67;;;o......",
"......p;;;[21(;;(|}[;;;q......",
".......r;;;/(;;;;(/;;;s.......",
".......tu;;;;;;;;;;;;)=.......",
"........vw;;;;;;;;;;fx........",
".........yz;;;;;;;;AB.........",
"...........CDEwFGHI...........",
"..............................",
"..............................",
"..............................",
"..............................",
"..............................",
".............................."};
