/* XPM */
static char * close_inactive_xpm[] = {
"30 30 60 1",
" 	c None",
".	c #778899",
"+	c #8F8091",
"@	c #A87685",
"#	c #B86D7C",
"$	c #BE6977",
"%	c #A97584",
"&	c #918090",
"*	c #858495",
"=	c #B2717F",
"-	c #C16876",
";	c #B3707F",
">	c #868494",
",	c #8D8192",
"'	c #BD6B79",
")	c #BD6A78",
"!	c #8F8191",
"~	c #848495",
"{	c #B17280",
"]	c #C58792",
"^	c #C16C7A",
"/	c #B4707E",
"(	c #8E8191",
"_	c #CACFD4",
":	c #C9B7BF",
"<	c #C9B7BE",
"[	c #CACED3",
"}	c #908090",
"|	c #A77786",
"1	c #C9BAC1",
"2	c #C16D7A",
"3	c #C8B7BE",
"4	c #C9B9C0",
"5	c #A97685",
"6	c #B76F7D",
"7	c #C9BCC2",
"8	c #B86E7C",
"9	c #BC6B79",
"0	c #C9BBC2",
"a	c #C9B9BF",
"b	c #BE6A78",
"c	c #B66F7D",
"d	c #B76E7C",
"e	c #A57787",
"f	c #A77686",
"g	c #8C8292",
"h	c #AF7281",
"i	c #B27180",
"j	c #828596",
"k	c #BA6C7A",
"l	c #898393",
"m	c #BB6B7A",
"n	c #818596",
"o	c #AF7382",
"p	c #B07281",
"q	c #838495",
"r	c #8B8292",
"s	c #B56F7E",
"t	c #A67786",
"u	c #8D8292",
"..............................",
"..............................",
"..............................",
"..............................",
"..............................",
"..............................",
"...........+@#$$#%&...........",
".........*=--------;>.........",
"........,'----------)!........",
".......~'------------)>.......",
".......{---]^----^]---/.......",
"......(---]_:^--^<[]---}......",
"......|---^<_12^3[42---5......",
"......6----^<_74[42----8......",
"......9-----^4__02-----$......",
"......9-----^a__72-----b......",
"......c----^3[04_12----d......",
"......e---^3[42^<_12---f......",
"......g---][<^--^:_]---(......",
".......h---]^----^]---i.......",
".......jk------------'*.......",
"........lm----------9g........",
".........no--------pq.........",
"...........resm9ctu...........",
"..............................",
"..............................",
"..............................",
"..............................",
"..............................",
".............................."};
