/* XPM */
static char * close_inactive_xpm[] = {
"30 30 60 1",
" 	c None",
".	c #2AC38A",
"+	c #67B883",
"@	c #90A879",
"#	c #A89A70",
"$	c #B0956D",
"%	c #92A778",
"&	c #6AB782",
"*	c #52BD86",
"=	c #9EA074",
"-	c #B3926B",
";	c #A09F73",
">	c #55BC86",
",	c #63B983",
"'	c #AD966E",
")	c #AF966D",
"!	c #66B883",
"~	c #50BD86",
"{	c #9DA175",
"]	c #B7A88A",
"^	c #B49570",
"/	c #A19F73",
"(	c #65B983",
"_	c #BDE3CF",
":	c #BCCFB9",
"<	c #69B782",
"[	c #8EA979",
"}	c #BCD2BB",
"|	c #BBCFB8",
"1	c #BCD1BB",
"2	c #91A778",
"3	c #A59D71",
"4	c #BCD3BD",
"5	c #BCD0BB",
"6	c #A79B71",
"7	c #AD976E",
"8	c #AC976E",
"9	c #BCD0BA",
"0	c #AF956D",
"a	c #A49D72",
"b	c #BCD2BD",
"c	c #A69B71",
"d	c #8CAA7A",
"e	c #8FA879",
"f	c #60BA84",
"g	c #64B883",
"h	c #9AA275",
"i	c #9FA074",
"j	c #4ABF87",
"k	c #AA986F",
"l	c #5CBB85",
"m	c #AB986F",
"n	c #4ABE87",
"o	c #9AA376",
"p	c #9BA275",
"q	c #4EBE87",
"r	c #5FBA84",
"s	c #A39E72",
"t	c #8DAA7A",
"u	c #62B984",
"..............................",
"..............................",
"..............................",
"..............................",
"..............................",
"..............................",
"...........+@#$$#%&...........",
".........*=--------;>.........",
"........,'----------)!........",
".......~'------------)>.......",
".......{---]^----^]---/.......",
"......(---]_:^--^:_]---<......",
"......[---^:_}^^|_1^---2......",
"......3----^:_45_1^----6......",
"......7-----^5__4^-----$......",
"......8-----^9__4^-----0......",
"......a----^|_b5_}^----c......",
"......d---^|_1^^:_}^---e......",
"......f---]_:^--^:_]---g......",
".......h---]^----^]---i.......",
".......jk------------'*.......",
"........lm----------7f........",
".........no--------pq.........",
"...........rdsm8atu...........",
"..............................",
"..............................",
"..............................",
"..............................",
"..............................",
".............................."};
