/* XPM */
static char * close_active_xpm[] = {
"30 30 73 1",
" 	c None",
".	c #2AC38A",
"+	c #89AB7B",
"@	c #C28463",
"#	c #E15B4C",
"$	c #ED3F3F",
"%	c #E25A4B",
"&	c #C38362",
"*	c #8DAA7A",
"=	c #6AB782",
"-	c #D46E56",
";	c #F13039",
">	c #D86B54",
",	c #70B581",
"'	c #83AE7D",
")	c #EA4943",
"!	c #EB4541",
"~	c #87AC7B",
"{	c #68B782",
"]	c #E94A43",
"^	c #6FB681",
"/	c #D37258",
"(	c #F7858B",
"_	c #F2424A",
":	c #D96953",
"<	c #2EC38A",
"[	c #85AD7C",
"}	c #F7868B",
"|	c #FFFFFF",
"1	c #FDDBDD",
"2	c #FDDADC",
"3	c #FFFEFE",
"4	c #8CAA7A",
"5	c #BF8764",
"6	c #F24149",
"7	c #FDDFE0",
"8	c #F2444C",
"9	c #FCDADB",
"0	c #FDDEDF",
"a	c #F2434C",
"b	c #DE634F",
"c	c #FDE2E3",
"d	c #FDDDDF",
"e	c #E15C4D",
"f	c #E94B45",
"g	c #FDE1E2",
"h	c #E84D45",
"i	c #FDDDDE",
"j	c #EC4240",
"k	c #DC6451",
"l	c #FDE0E2",
"m	c #E05D4D",
"n	c #BC8B67",
"o	c #C18664",
"p	c #7FB07E",
"q	c #86AC7C",
"r	c #D0765B",
"s	c #D66F57",
"t	c #5FBA85",
"u	c #E55247",
"v	c #79B27F",
"w	c #E74E46",
"x	c #80AF7D",
"y	c #5FBA84",
"z	c #CF785B",
"A	c #D1745A",
"B	c #64B883",
"C	c #7EB07E",
"D	c #DB6651",
"E	c #E74E45",
"F	c #DC6450",
"G	c #BD8966",
"H	c #82AF7D",
"..............................",
"..............................",
"..............................",
"..............................",
"..............................",
"..............................",
"...........+@#$$%&*...........",
".........=-;;;;;;;;>,.........",
"........');;;;;;;;;;!~........",
".......{];;;;;;;;;;;;!^.......",
"......./;;;(_;;;;_(;;;:<......",
"......[;;;}|1_;;_23};;;4......",
"......5;;;62|786930a;;;&......",
"......b;;;;62|cd30a;;;;e......",
"......f;;;;;6d||ga;;;;;$......",
"......h;;;;;6i||c8;;;;;j......",
"......k;;;;693ld|78;;;;m......",
"......n;;;6930a62|78;;;o......",
"......p;;;}32_;;_1|};;;q......",
".......r;;;(_;;;;_(;;;s.......",
".......tu;;;;;;;;;;;;)=.......",
"........vw;;;;;;;;;;fx........",
".........yz;;;;;;;;AB.........",
"...........CnDwEFGH...........",
"..............................",
"..............................",
"..............................",
"..............................",
"..............................",
".............................."};
