/* XPM */
static char * close_pressed_xpm[] = {
"30 30 25 1",
" 	c None",
".	c #2AC38A",
"+	c #89AC7B",
"@	c #AF956D",
"#	c #C48362",
"$	c #CD795C",
"%	c #CE775B",
"&	c #CF775B",
"*	c #A39D72",
"=	c #CF765B",
"-	c #CE765B",
";	c #D49B8B",
">	c #D07C63",
",	c #DBEFE4",
"'	c #D9D4C9",
")	c #D9D3C8",
"!	c #DBEEE3",
"~	c #D07B62",
"{	c #D9D7CB",
"]	c #D07C64",
"^	c #D8D3C7",
"/	c #D9D6CA",
"(	c #D9D9CE",
"_	c #D9D9CD",
":	c #D9D8CD",
"..............................",
"..............................",
"..............................",
"..............................",
"..............................",
"...........+@#$$#@+...........",
".........+#%%&&&&%&#+.........",
"........*&%&&&&&&&&&&*........",
".......*=&&&&&&&&&&&&-*.......",
"......+%&&&&&&&&&&&&&&&+......",
"......#&&&&;>&&&&>;&&&=#......",
".....+&&&&;,'>&&>)!;&&&=+.....",
".....@&&&&~),{]~^!/]&&&%@.....",
".....#&&&&&~),(/!/]&&&&&#.....",
".....$&&&&&&~/,,_]&&&&&&$.....",
".....$&&&&&&~/,,(]&&&&&&$.....",
".....#&&&&&~^!:/,{]&&&&=#.....",
".....@&&&&~^!/]~),{]&&&=@.....",
".....+&&&&;!)>&&>',;&&&-+.....",
"......#&&&&;>&&&&>;&&&&#......",
"......+&%&&&&&&&&&&&&&&+......",
".......*%=&&&&&&&&&&&&*.......",
"........*-&&&&&&&&&=%*........",
".........+#=&&=&&=&#+.........",
"...........+@#$$#@+...........",
"..............................",
"..............................",
"..............................",
"..............................",
".............................."};
