/* XPM */
static char * close_pressed_xpm[] = {
"30 30 24 1",
" 	c None",
".	c #5587A2",
"+	c #947890",
"@	c #B6697E",
"#	c #C85E71",
"$	c #D05769",
"%	c #D15667",
"&	c #D25667",
"*	c #AB6E85",
"=	c #D78692",
"-	c #D35D6E",
";	c #C85D70",
">	c #DEE4E8",
",	c #DCC7CE",
"'	c #DCC6CD",
")	c #DEE3E8",
"!	c #DCCAD0",
"~	c #D35E6F",
"{	c #DBC6CC",
"]	c #DCC9CF",
"^	c #DCCCD2",
"/	c #DCC8CF",
"(	c #DCC8CE",
"_	c #DCCBD2",
"..............................",
"..............................",
"..............................",
"..............................",
"..............................",
"...........+@#$$#@+...........",
".........+#%%&&&&%&#+.........",
"........*&%&&&&&&&&&&*........",
".......*&&&&&&&&&&&&&%*.......",
"......+%&&&&&&&&&&&&&&&+......",
"......#&&&&=-&&&&-=&&&&;......",
".....+&&&&=>,-&&-')=&&&&+.....",
".....@&&&&-'>!~-{)]~&&&%@.....",
".....#&&&&&-'>^/)]~&&&&&#.....",
".....$&&&&&&-/>>^~&&&&&&$.....",
".....$&&&&&&-(>>^~&&&&&&$.....",
".....#&&&&&-{)_/>!~&&&&&#.....",
".....@&&&&-{)]~-'>!~&&&&@.....",
".....+&&&&=)'-&&-,>=&&&%+.....",
"......#&&&&=-&&&&-=&&&&#......",
"......+&%&&&&&&&&&&&&&&+......",
".......*%&&&&&&&&&&&&&*.......",
"........*%&&&&&&&&&&%*........",
".........+#&&&&&&&&#+.........",
"...........+@#$$#@+...........",
"..............................",
"..............................",
"..............................",
"..............................",
".............................."};
