/* XPM */
static char * close_inactive_xpm[] = {
"30 30 59 1",
" 	c None",
".	c #5587A2",
"+	c #7A8099",
"@	c #9B758D",
"#	c #AF6C82",
"$	c #B6697E",
"%	c #9C758C",
"&	c #7C7F98",
"*	c #6B839D",
"=	c #A77087",
"-	c #B9677C",
";	c #A87086",
">	c #6D839D",
",	c #77809A",
"'	c #B46A7F",
")	c #B5697F",
"!	c #798099",
"~	c #6A839E",
"{	c #A57188",
"]	c #BD8697",
"^	c #B96C80",
"/	c #A96F85",
"(	c #78809A",
"_	c #BD8797",
":	c #C3CED7",
"<	c #C1B7C2",
"[	c #C3CED6",
"}	c #7B7F99",
"|	c #99768D",
"1	c #B96B80",
"2	c #C1BAC4",
"3	c #C1B7C1",
"4	c #C1B9C4",
"5	c #9B758C",
"6	c #AD6E84",
"7	c #C1BCC6",
"8	c #C1B8C4",
"9	c #AE6D83",
"0	c #B36A80",
"a	c #C1BBC5",
"b	c #C1B8C3",
"c	c #AB6E84",
"d	c #C1BAC5",
"e	c #97778E",
"f	c #9A758D",
"g	c #75819B",
"h	c #A47289",
"i	c #66849F",
"j	c #B16B81",
"k	c #72829B",
"l	c #B26B80",
"m	c #66849E",
"n	c #A37289",
"o	c #A47188",
"p	c #68849E",
"q	c #74819B",
"r	c #AB6F85",
"s	c #98768E",
"t	c #76819A",
"..............................",
"..............................",
"..............................",
"..............................",
"..............................",
"..............................",
"...........+@#$$#%&...........",
".........*=--------;>.........",
"........,'----------)!........",
".......~'------------)>.......",
".......{---]^----^]---/.......",
"......(---_:<^--^<[_---}......",
"......|---1<:2^13[4^---5......",
"......6----1<:78[4^----9......",
"......0-----18::a^-----$......",
"......0-----1b::7^-----$......",
"......c----13[d8:2^----9......",
"......e---13[4^1<:2^---f......",
"......g---_[<^--^<:_---(......",
".......h---]^----^]---=.......",
".......ij------------'*.......",
"........kl----------0g........",
".........mn--------op.........",
"...........qerl0cst...........",
"..............................",
"..............................",
"..............................",
"..............................",
"..............................",
".............................."};
