/* XPM */
static char * close_active_xpm[] = {
"30 30 70 1",
" 	c None",
".	c #DC4FAD",
"+	c #E24899",
"@	c #E83E79",
"#	c #EE3657",
"$	c #F03243",
"%	c #EE3656",
"&	c #E93E77",
"*	c #E24897",
"=	c #DF4CA3",
"-	c #EB3966",
";	c #F13039",
">	c #EC3964",
",	c #E04BA1",
"'	c #E1499B",
")	c #F03349",
"!	c #F03247",
"~	c #E14899",
"{	c #F0334A",
"]	c #EC3A69",
"^	c #F7858B",
"/	c #F2424A",
"(	c #ED3862",
"_	c #E2499B",
":	c #F7868B",
"<	c #FFFFFF",
"[	c #FDDBDD",
"}	c #FDDADC",
"|	c #FFFEFE",
"1	c #E24898",
"2	c #E93F7B",
"3	c #F24149",
"4	c #FDDFE0",
"5	c #F2444C",
"6	c #FCDADB",
"7	c #FDDEDF",
"8	c #F2434C",
"9	c #E93F77",
"0	c #EE375D",
"a	c #FDE2E3",
"b	c #FDDDDF",
"c	c #EE3658",
"d	c #EF334C",
"e	c #FDE1E2",
"f	c #EF344D",
"g	c #FDDDDE",
"h	c #F03245",
"i	c #ED385F",
"j	c #FDE0E2",
"k	c #EE3559",
"l	c #E8407D",
"m	c #E93E7A",
"n	c #E14A9D",
"o	c #E1489A",
"p	c #EB3B6D",
"q	c #ED3A67",
"r	c #DF4DA6",
"s	c #EE3450",
"t	c #E04A9E",
"u	c #EF334E",
"v	c #E14A9C",
"w	c #DE4CA5",
"x	c #EB3C6E",
"y	c #EB3A6B",
"z	c #DF4CA4",
"A	c #E1499D",
"B	c #E8407E",
"C	c #ED375E",
"D	c #E83F7C",
"E	c #E1499C",
"..............................",
"..............................",
"..............................",
"..............................",
"..............................",
"..............................",
"...........+@#$$%&*...........",
".........=-;;;;;;;;>,.........",
"........');;;;;;;;;;!~........",
".......={;;;;;;;;;;;;!,.......",
".......];;;^/;;;;/^;;;(.......",
"......_;;;:<[/;;/}|:;;;1......",
"......2;;;3}<4536|78;;;9......",
"......0;;;;3}<ab|78;;;;c......",
"......d;;;;;3b<<e8;;;;;$......",
"......f;;;;;3g<<a5;;;;;h......",
"......i;;;;36|jb<45;;;;k......",
"......l;;;36|783}<45;;;m......",
"......n;;;:|}/;;/[<:;;;o......",
".......p;;;^/;;;;/^;;;q.......",
".......rs;;;;;;;;;;;;)=.......",
"........tu;;;;;;;;;;dv........",
".........wx;;;;;;;;yz.........",
"...........ABiufCDE...........",
"..............................",
"..............................",
"..............................",
"..............................",
"..............................",
".............................."};
