/* XPM */
static char * close_pressed_xpm[] = {
"30 30 24 1",
" 	c None",
".	c #DC4FAD",
"+	c #E24899",
"@	c #E64286",
"#	c #E93E77",
"$	c #EB3C6F",
"%	c #EA3B6D",
"&	c #EB3B6D",
"*	c #E5458D",
"=	c #EF7896",
"-	c #EC4673",
";	c #EF7996",
">	c #F5DDEA",
",	c #F4BFD0",
"'	c #F4BECF",
")	c #F5DCEA",
"!	c #F4C2D2",
"~	c #EC4774",
"{	c #F3BECF",
"]	c #F4C1D2",
"^	c #F4C5D5",
"/	c #F4C4D4",
"(	c #F4C1D1",
"_	c #F4C3D4",
"..............................",
"..............................",
"..............................",
"..............................",
"..............................",
"...........+@#$$#@+...........",
".........+#%%&&&&%&#+.........",
"........*&%&&&&&&&&&&*........",
".......*&&&&&&&&&&&&&%*.......",
"......+%&&&&&&&&&&&&&&&+......",
"......#&&&&=-&&&&-=&&&&#......",
".....+&&&&;>,-&&-');&&&&+.....",
".....@&&&&-'>!~-{)]~&&&%@.....",
".....#&&&&&-'>^])]~&&&&&#.....",
".....$&&&&&&-]>>/~&&&&&&$.....",
".....$&&&&&&-(>>^~&&&&&&$.....",
".....#&&&&&-{)_]>!~&&&&&#.....",
".....@&&&&-{)]~-'>!~&&&&@.....",
".....+&&&&;)'-&&-,>;&&&%+.....",
"......#&&&&=-&&&&-=&&&&#......",
"......+&%&&&&&&&&&&&&&&+......",
".......*%&&&&&&&&&&&&&*.......",
"........*%&&&&&&&&&&%*........",
".........+#&&&&&&&&#+.........",
"...........+@#$$#@+...........",
"..............................",
"..............................",
"..............................",
"..............................",
".............................."};
