/* XPM */
static char * close_inactive_xpm[] = {
"30 30 46 1",
" 	c None",
".	c #DC4FAD",
"+	c #DF4CA3",
"@	c #E24796",
"#	c #E5448B",
"$	c #E64286",
"%	c #E24795",
"&	c #DE4DA8",
"*	c #E4458F",
"=	c #E74284",
"-	c #DE4DA7",
";	c #DF4CA4",
">	c #E64387",
",	c #DD4DA8",
"'	c #E44690",
")	c #EA6E9D",
"!	c #E74987",
"~	c #E4458E",
"{	c #EA6F9D",
"]	c #EEC2DB",
"^	c #EDA8C7",
"/	c #EDA7C6",
"(	c #EEC1DA",
"_	c #E24897",
":	c #E74887",
"<	c #EDABC9",
"[	c #E74A88",
"}	c #EDAAC8",
"|	c #E74988",
"1	c #E5448C",
"2	c #EDADCA",
"3	c #EDA9C8",
"4	c #E64388",
"5	c #EDACCA",
"6	c #EDA9C7",
"7	c #E5448D",
"8	c #E24898",
"9	c #DE4CA5",
"0	c #E44691",
"a	c #E54590",
"b	c #DD4EA9",
"c	c #E54389",
"d	c #DE4DA6",
"e	c #DF4CA5",
"f	c #E44692",
"g	c #E5458D",
"..............................",
"..............................",
"..............................",
"..............................",
"..............................",
"..............................",
"...........+@#$$#%+...........",
".........&*========*-.........",
"........;>==========>;........",
".......,>============>-.......",
".......'===)!====!)===~.......",
"......;==={]^!==!/({===+......",
"......_===:/]<[:/(}|===%......",
"......1====:/]23(}|====#......",
"......4=====:3]]5|=====$......",
"......4=====:6]]2[=====$......",
"......7====:/(53]<[====#......",
"......8===:/(}|:/]<[===@......",
"......9==={(/!==!^]{===;......",
".......0===)!====!)===a.......",
".......bc============>&.......",
"........d4==========4e........",
".........bf========0,.........",
"...........98g447_e...........",
"..............................",
"..............................",
"..............................",
"..............................",
"..............................",
".............................."};
